<svg id="Layer_1" data-name="Layer 1" xmlns="http://www.w3.org/2000/svg" viewBox="0 0 50 50">
  <title>phone</title>
  <g>
    <path d="M34.5,49.11a18.2,18.2,0,0,1-6.28-1.34c-5.2-2-10.87-5.84-15.95-10.92s-9-10.75-10.93-16C-.42,16.22-.45,12.4,1.27,10.68c.26-.26.53-.53.8-.82,1.6-1.68,3.42-3.58,5.74-3.49,1.62.07,3.19,1.09,4.82,3.11,4.81,6,2.65,8.1.16,10.56l-.46.45c-.83.83,0,2.6.9,3.94a41.39,41.39,0,0,0,5.29,6.16,41.39,41.39,0,0,0,6.16,5.29c1.34.87,3.11,1.74,3.94.91l.46-.47c2.45-2.49,4.58-4.64,10.55.16,2,1.63,3,3.21,3.11,4.82.1,2.34-1.81,4.15-3.49,5.75l-.82.79A5.43,5.43,0,0,1,34.5,49.11ZM7.65,7.37c-1.84,0-3.44,1.68-4.86,3.18L2,11.39C.56,12.8.67,16.31,2.27,20.54,4.19,25.62,8,31.16,13,36.14s10.53,8.79,15.6,10.7c4.23,1.6,7.74,1.71,9.16.29l.83-.8c1.53-1.45,3.26-3.1,3.19-5-.06-1.31-1-2.65-2.74-4.08C33.73,33,32.25,34.52,29.79,37l-.47.47c-1,1-2.79.79-5.18-.77a41.84,41.84,0,0,1-6.32-5.42A41.74,41.74,0,0,1,12.4,25c-1.56-2.39-1.82-4.14-.77-5.18l.46-.46c2.5-2.46,4-3.95-.23-9.22C10.42,8.32,9.08,7.42,7.77,7.37Z" style="fill: #fff"/>
    <path d="M29.9,26.28V20.67a7.31,7.31,0,0,1-6.74-7.27V8.19a7.3,7.3,0,0,1,7.3-7.3H42.7A7.3,7.3,0,0,1,50,8.19V13.4a7.3,7.3,0,0,1-7.3,7.3H38.49Zm.56-24.4a6.32,6.32,0,0,0-6.31,6.31V13.4a6.32,6.32,0,0,0,6.25,6.3h.5v4.75l7.29-4.74H42.7A6.32,6.32,0,0,0,49,13.4V8.19A6.32,6.32,0,0,0,42.7,1.88Z" style="fill: #fff"/>
    <g>
      <path d="M30.91,11.63a.72.72,0,0,1-.72-.72.72.72,0,1,1,1.44,0A.72.72,0,0,1,30.91,11.63Zm0-1a.27.27,0,1,0,.27.27A.27.27,0,0,0,30.91,10.64Z" style="fill: #fff"/>
      <path d="M36.58,11.63a.72.72,0,0,1-.72-.72.72.72,0,1,1,1.44,0A.72.72,0,0,1,36.58,11.63Zm0-1a.27.27,0,1,0,.27.27A.27.27,0,0,0,36.58,10.64Z" style="fill: #fff"/>
      <path d="M42.25,11.63a.73.73,0,0,1-.73-.72.73.73,0,0,1,.73-.73.73.73,0,0,1,.72.73A.72.72,0,0,1,42.25,11.63Zm0-1a.27.27,0,1,0,.27.27A.27.27,0,0,0,42.25,10.64Z" style="fill: #fff"/>
    </g>
  </g>
</svg>
