<svg id="Слой_1" data-name="Слой 1" xmlns="http://www.w3.org/2000/svg" viewBox="0 0 260 260">
  <title>pic</title>
  <circle cx="130" cy="130" r="130" style="fill: #fff"/>
  <g>
    <path d="M188.67,159.46l-13.52-2.09-3.81-2.77c-.27-9.61,21.66-7.54,21.66-7.54Zm46,7.15,1.09-7c.24-1.56-10.47-2-10.47-2s-8.12-12-29.38-14.15-27.61,5.3-27.61,5.3-15.79-1.25-21.47,1.87,2.83,15.23,2.83,15.23l1.28.19a10,10,0,1,1,19.92.63,10.23,10.23,0,0,1-.7,2.36L206,174.53a10.06,10.06,0,1,1,19.22,3l1.32.2s7.12-2.09,9-3.8-.87-7.31-.87-7.31" style="fill: #6cbcd3"/>
    <polygon points="78.59 97.81 78.59 133.33 42.33 133.33 42.33 121.49 54.91 97.81 78.59 97.81" style="fill: #13274b"/>
    <polygon points="131.85 133.33 131.85 137.03 198.44 88.2 203.62 91.9 210.28 88.2 196.96 82.28 131.85 133.33" style="fill: #6cbcd3"/>
    <polygon points="60.46 158.49 110.4 158.49 110.4 151.83 85.43 151.83 78.59 139.99 60.46 139.99 60.46 158.49" style="fill: #13274b"/>
    <polygon points="82.28 127.41 82.28 139.99 85.43 149.24 112.25 149.24 112.25 159.59 118.91 159.59 118.91 127.41 82.28 127.41" style="fill: #13274b"/>
    <polygon points="120.75 109.77 128.52 109.77 128.52 137.03 139.99 155.53 120.75 155.53 120.75 109.77" style="fill: #13274b"/>
    <polygon points="120.75 95.23 136.29 95.23 136.29 109.65 120.75 109.77 120.75 95.23" style="fill: #13274b"/>
    <path d="M73,82.28s7,8.88,9.25,8.51,41.8,0,41.8,0l-7.4-8.52Z" style="fill: #13274b"/>
    <polygon points="34.93 162.19 74.89 164.77 82.29 163.48 88.2 166.62 100.6 162.19 145.59 162.19 158.49 177.72 23.84 177.72 34.93 162.19" style="fill: #13274b"/>
    <path d="M86.35,121V96.83l27.05,1.44L114.84,121Zm30.71-25.77L82.28,93.38v31.07h36.63Z" style="fill: #6cbcd3"/>
    <path d="M55.45,146.65A9.42,9.42,0,1,1,46,137.23a9.41,9.41,0,0,1,9.42,9.42" style="fill: #6cbcd3"/>
    <path d="M142.05,118.16a5.76,5.76,0,1,1-5.75-5.75,5.76,5.76,0,0,1,5.75,5.75" style="fill: #13274b"/>
  </g>
</svg>
