<svg id="Слой_1" data-name="Слой 1" xmlns="http://www.w3.org/2000/svg" viewBox="0 0 260 260">
  <title>pic</title>
  <circle cx="130" cy="130" r="130" style="fill: #fff"/>
  <g>
    <rect x="158.07" y="61.01" width="7.83" height="119.58" style="fill: #13274b"/>
    <rect x="56.05" y="86.24" width="6.72" height="109.62" style="fill: #6cbcd3"/>
    <rect x="114.61" y="93.6" width="6.71" height="102.26" style="fill: #6cbcd3"/>
    <rect x="126.54" y="88.3" width="6.72" height="107.56" style="fill: #6cbcd3"/>
    <rect x="146.68" y="118.56" width="6.71" height="77.3" style="fill: #13274b"/>
    <polygon points="169.25 194.12 164.35 195.86 142.7 90.04 147.6 88.3 169.25 194.12" style="fill: #13274b"/>
    <rect x="75.07" y="136.18" width="135.02" height="3.93" style="fill: #6cbcd3"/>
    <polygon points="144.65 80.22 47.14 152.09 44.84 146.66 142.35 74.79 144.65 80.22" style="fill: #13274b"/>
    <polygon points="213.16 140.12 116.65 80.19 118.66 74.57 215.16 134.49 213.16 140.12" style="fill: #13274b"/>
    <rect x="48.19" y="157.64" width="130.57" height="41.34" style="fill: #13274b"/>
  </g>
</svg>
