<svg id="Слой_1" data-name="Слой 1" xmlns="http://www.w3.org/2000/svg" viewBox="0 0 260 260">
  <title>pic</title>
  <circle cx="130" cy="130" r="130" style="fill: #fff"/>
  <g>
    <polygon points="87.93 128.8 91.64 82.21 94.01 89.71 98.91 82.21 100.42 92.44 101.93 82.21 106.56 128.8 87.93 128.8" style="fill: #13274b"/>
    <polygon points="116.39 128.8 111.61 128.8 111.61 123.34 85.01 123.34 85.01 128.8 39.98 128.8 39.98 141.08 116.39 141.08 116.39 128.8" style="fill: #305377"/>
    <polygon points="116.39 171.79 116.39 146.54 62.49 146.54 62.49 166.33 45.44 166.33 45.44 146.54 39.98 146.54 39.98 171.79 34.18 171.79 34.18 182.02 122.19 182.02 122.19 171.79 116.39 171.79" style="fill: #305377"/>
    <path d="M71.63,166.54a1.92,1.92,0,1,1-1.92-1.92,1.92,1.92,0,0,1,1.92,1.92" style="fill: #6cbcd3"/>
    <path d="M79.78,166.54a1.92,1.92,0,1,1-1.92-1.92,1.92,1.92,0,0,1,1.92,1.92" style="fill: #6cbcd3"/>
    <path d="M87.93,166.54A1.92,1.92,0,1,1,86,164.62a1.92,1.92,0,0,1,1.92,1.92" style="fill: #6cbcd3"/>
    <path d="M96.08,166.54a1.92,1.92,0,1,1-1.92-1.92,1.92,1.92,0,0,1,1.92,1.92" style="fill: #6cbcd3"/>
    <path d="M104.23,166.54a1.92,1.92,0,1,1-1.92-1.92,1.92,1.92,0,0,1,1.92,1.92" style="fill: #6cbcd3"/>
    <path d="M112.38,166.54a1.92,1.92,0,1,1-1.92-1.92,1.92,1.92,0,0,1,1.92,1.92" style="fill: #6cbcd3"/>
    <path d="M45.58,177a1.12,1.12,0,1,1-1.12-1.12A1.12,1.12,0,0,1,45.58,177" style="fill: #6cbcd3"/>
    <path d="M50.34,177a1.13,1.13,0,1,1-1.12-1.12A1.12,1.12,0,0,1,50.34,177" style="fill: #6cbcd3"/>
    <path d="M55.09,177A1.12,1.12,0,1,1,54,175.89,1.12,1.12,0,0,1,55.09,177" style="fill: #6cbcd3"/>
    <path d="M59.85,177a1.12,1.12,0,1,1-1.12-1.12A1.12,1.12,0,0,1,59.85,177" style="fill: #6cbcd3"/>
    <path d="M64.61,177a1.12,1.12,0,1,1-1.12-1.12A1.12,1.12,0,0,1,64.61,177" style="fill: #6cbcd3"/>
    <path d="M69.37,177a1.12,1.12,0,1,1-1.12-1.12A1.12,1.12,0,0,1,69.37,177" style="fill: #6cbcd3"/>
    <path d="M75.23,177a1.12,1.12,0,1,1-1.12-1.12A1.12,1.12,0,0,1,75.23,177" style="fill: #6cbcd3"/>
    <path d="M80,177a1.12,1.12,0,1,1-1.12-1.12A1.12,1.12,0,0,1,80,177" style="fill: #6cbcd3"/>
    <path d="M84.75,177a1.12,1.12,0,1,1-1.12-1.12A1.12,1.12,0,0,1,84.75,177" style="fill: #6cbcd3"/>
    <path d="M89.51,177a1.12,1.12,0,1,1-1.12-1.12A1.12,1.12,0,0,1,89.51,177" style="fill: #6cbcd3"/>
    <path d="M94.27,177a1.13,1.13,0,1,1-1.12-1.12A1.12,1.12,0,0,1,94.27,177" style="fill: #6cbcd3"/>
    <path d="M99,177a1.12,1.12,0,1,1-1.11-1.12A1.12,1.12,0,0,1,99,177" style="fill: #6cbcd3"/>
    <path d="M71.63,153.36a1.92,1.92,0,1,1-1.92-1.92,1.91,1.91,0,0,1,1.92,1.92" style="fill: #6cbcd3"/>
    <path d="M79.78,153.36a1.92,1.92,0,1,1-1.92-1.92,1.91,1.91,0,0,1,1.92,1.92" style="fill: #6cbcd3"/>
    <path d="M87.93,153.36A1.92,1.92,0,1,1,86,151.44a1.91,1.91,0,0,1,1.92,1.92" style="fill: #6cbcd3"/>
    <path d="M96.08,153.36a1.92,1.92,0,1,1-1.92-1.92,1.91,1.91,0,0,1,1.92,1.92" style="fill: #6cbcd3"/>
    <path d="M104.23,153.36a1.92,1.92,0,1,1-1.92-1.92,1.91,1.91,0,0,1,1.92,1.92" style="fill: #6cbcd3"/>
    <path d="M112.38,153.36a1.92,1.92,0,1,1-1.92-1.92,1.91,1.91,0,0,1,1.92,1.92" style="fill: #6cbcd3"/>
    <path d="M216.05,178.83V164.38H201.17s1.71,8.93,7.44,9.78V181H173.12V137.18l-8.5,2.12-3.83,8.5L167.2,155l-9.38,4s3.4,7,4.68,8.28-.85,8.08-.85,8.08l-3.83-5.52s-5.95-3-5.1-4.25,1.7-9.35,1.7-9.35l-1.78-7.23v-6.8l-28,9.77V181h-8.08l3-12.75-3-5.1,4.26-11.48-4.26-7.22,2.56-7.23h7.22v7.23l6.37-.43-.42-15.3,7.23,3.83,2.12-3.83-1.7-7.22,1.28-2.56L134,112.11,135.72,78H143l1.7,23.07-3,3.83,3.83,3.82,2.12,27.21,4.67-.85-.42-16.79,7.23,3.19-.43-8.93,8.53,5.74v-10l14.42,6.8-.43,3.19h5.11s-1.7,14.24,5.52,19.76c0,0,1.28,12.75,8.93,14l.42,3.83,14.88-1.27-1.7-5.11,6.42-.42v3h5v4.68l-21.67,3.4,3.82,1.7,17-1.7-.42,4h-5.32V182h-3.39Z" style="fill: #13274b"/>
  </g>
</svg>
