<svg id="Слой_1" data-name="Слой 1" xmlns="http://www.w3.org/2000/svg" xmlns:xlink="http://www.w3.org/1999/xlink" viewBox="0 0 260 260">
  <defs>
    <clipPath id="clip-path">
      <rect x="18.24" y="44.88" width="223.53" height="170.25" style="fill: none"/>
    </clipPath>
  </defs>
  <title>pic</title>
  <circle cx="130" cy="130" r="130" style="fill: #fff"/>
  <g style="clip-path: url(#clip-path)">
    <g>
      <path d="M73.38,190.56l1.17-2.51v5Zm-1.7,2.5v-5l1.17,2.5Zm-8-24.58V152.39l6-1v16.47Zm-2,5-1.38,2.93L59,173.47v-3.9l2.75-.31ZM60.6,190.81l1.11-2.37v4.74ZM59,193.18v-4.74l1.11,2.37Zm0-13.85v-4.74L60.07,177ZM60.6,177l1.11-2.37v4.74Zm1.11,3.49v6.87l-1.38,2.93L59,187.32v-6.87l1.37-2.93ZM50.23,170V154.77l6.76-1.2v15.66Zm-1.87,4.49L47,177.28l-1.31-2.8v-3.43l2.63-.3Zm-1,16.59,1-2.24v4.47Zm-1.58,2.23v-4.47l1.05,2.24Zm0-13.22v-4.47l1.05,2.23Zm1.58-2.24,1-2.24v4.48Zm1,3.36v6.51L47,190.51l-1.31-2.8v-6.52L47,178.4Zm-10.74-9.8V157l6.23-1.1v14.8Zm-1.77,4.35-1.23,2.63-1.24-2.63v-3.32l2.47-.28Zm-1,15.63,1-2.07v4.14Zm-1.5,2.07v-4.14l1,2.07Zm0-12.43v-4.15l1,2.07Zm1.5-2.08,1-2.07V181Zm1,3.19v6.06l-1.23,2.63-1.24-2.63v-6.06l1.24-2.63ZM24,172.92v-13.5l7.65-1.35v14Zm-1.68,3.71-1.19,2.52-1.18-2.52v-2.7l2.37-.26Zm-.92,15,.92-2v3.92Zm-1.45,2v-3.92l.92,2Zm0-11.9v-3.91l.92,2Zm1.45-1.95.92-2v3.91Zm.92,3.07v5.75L21.1,191l-1.18-2.51v-5.75l1.18-2.52Zm-11.58-8.37V161.76l7.53-1.33v13.13Zm-1.62,3L8,179.82,6.82,177.4v-2l2.27-.25Zm-.87,14.39.87-1.85v3.71Zm-1.4,1.86v-3.71l.87,1.85Zm0-11.42v-3.71l.87,1.86Zm1.4-1.85.87-1.86v3.71Zm.87,3v5.47L8,191.23l-1.13-2.41v-5.47L8,180.94ZM-2.64,175.9V164.13l7.84-1.39V175Zm-1.52,2.59-1.07,2.28-1.07-2.28v-1.62l2.14-.24ZM-5,192.07l.81-1.72v3.43Zm-1.33,1.71v-3.43l.81,1.72Zm0-10.74v-3.43l.81,1.71ZM-5,181.32l.81-1.71V183Zm.81,2.84v5.08l-1.07,2.27-1.07-2.27v-5.08l1.07-2.28Zm-11.67-6.78V166.46l8-1.42v11.44Zm-1.43,2.21-1,2.13-1-2.13v-1.27l2-.23ZM-18,192.34l.74-1.57v3.14Zm-1.26,1.57v-3.14l.74,1.57Zm0-10.06v-3.14l.74,1.57Zm1.26-1.57.74-1.58v3.15Zm.74,2.69v4.68l-1,2.13-1-2.13V185l1-2.14Zm-11.68-6.13V168.78l8.25-1.46v10.6Zm-1.32,2-.92,2-.92-2v-1.06l1.84-.21Zm-.66,11.83.66-1.41v2.82Zm-1.18,1.41v-2.82l.66,1.41Zm0-9.31v-2.82l.66,1.41Zm1.18-1.41.66-1.41v2.82Zm.66,2.53v4.25l-.92,2-.92-2v-4.25l.92-2Zm-11.49-5.6v-9.22l8.33-1.48v9.77ZM-43,181.83l-.86,1.84-.86-1.84v-.66L-43,181Zm-.6,11.07.6-1.27v2.55Zm-1.12,1.28v-2.55l.6,1.27Zm0-8.68V183l.6,1.28Zm1.12-1.27L-43,183v2.55Zm.6,2.39v3.89l-.86,1.83-.86-1.83v-3.89l.86-1.84Zm-11.39-4.94v-8.4l8.44-1.5v9Zm-1.13,1.38-.78,1.67-.79-1.67v-.51l1.57-.18ZM-56,193.21l.52-1.12v2.24Zm-1,1.12v-2.24l.53,1.12Zm0-7.92v-2.23l.53,1.11Zm1-1.12.52-1.11v2.23Zm.52,2.24V191l-.78,1.68-.79-1.68v-3.44l.79-1.68Zm-11.42-4.44V175.5l8.73-1.54v8.15Zm-1,1.06-.72,1.54-.71-1.54v-.23l1.43-.16Zm-.45,9.33.45-1v2Zm-1,1v-2l.45,1Zm0-7.24v-1.95l.45,1Zm1-1,.45-1v1.95Zm.45,2.1v3l-.72,1.53-.71-1.53v-3l.71-1.54Zm-11.19-3.88v-6.8l8.73-1.54v7.36Zm-.93,1.3-.28-.61.28,0Zm-1.3-.49.24,0-.24.51Zm1.3-13.26v.11l-.65,1.39-.65-1.39v-1Zm0,6.67-.12.26-.27-.57.24-.52.15,0Zm0,5.42v.46l-.23,0Zm-1.3,0,.27.58-.27,0Zm.65-4-.27-.57.27-.57.27.57Zm.65.24v1.15l-.39-.83.27-.57Zm-1.3,2.27.65-1.39.65,1.39v.4l-.65,1.39-.65-1.39Zm0-2.27.12-.25.27.57-.39.83Zm.22-2.29.17.35-.27.57-.12-.25v-.63Zm1.08-3.12-.39-.83.39-.83Zm-1.3,1.11.65-1.38.65,1.39v.4l-.43.92-.4.07-.47-1Zm0-2.77.39.83-.39.83Zm0-21.72,11-3.48v27.52l-8.73,1.54V156.91h-.93v10.18l-1.3-.91Zm11-11.4v7.34l-11,3.48v-6.63Zm12.22-4.68v8.13l-11.19,3.57v-7.42Zm12.26-4.7v8.94l-11.14,3.54V135ZM-33.42,126v9.75l-11.28,3.59v-9Zm12.73-4.87v10.57l-11.41,3.63v-9.83Zm12.87-4.94v11.42l-11.44,3.64V120.53Zm13-5v12.26l-11.5,3.66V115.56Zm13-5v13.11L6.82,122.91V110.54Zm13.38-5.12v14l-11.7,3.71V105.52Zm12.23-4.69v14.78l-10.47,3.33v-14.1Zm13.14-5V107l-11.26,3.58V95.64Zm12.63-4.83v16.45L59,106.33V90.57ZM59,166.6l1.37-2.93,1.38,2.93v2.1L59,169Zm2.75-20.83-1.38,2.93L59,145.77V143l2.75,1.93Zm-1.11,3.49,1.11-2.37v4.74ZM59,160.74l1.11,2.37L59,165.48Zm1.37-10.92,1.13,2.4-2.46.43ZM59,151.63v-4.74l1.11,2.37Zm2.75,8-1.38,2.93L59,159.62v-6.39l2.74-.49h0Zm0,5.86-1.11-2.37,1.11-2.37ZM50.23,148.55V116.9H48.36v20.44l-2.63-1.85V111.11L57,107.53V153l-6.76,1.2ZM45.73,168l1.31-2.8,1.32,2.8v2.22l-2.63.3ZM48.36,148,47,150.83,45.73,148v-2.65l2.63,1.85Zm-1,3.36,1-2.24v4.48Zm-1.58,9.87v-5.69l2.63-.47v6.16L47,164.06Zm0,1.12,1.05,2.24-1.05,2.23Zm0-8.75v-4.47l1.05,2.23ZM47,152l1.23,2.6-2.54.45v-.25Zm1.32,14.9-1-2.23,1-2.24ZM37.62,151.39V121.61H35.85v19.23l-2.47-1.73V115l10.47-3.33v43.63l-6.23,1.1Zm-4.24,18.3,1.24-2.63,1.23,2.63v1.9l-2.47.28Zm2.47-18.82-1.23,2.63-1.24-2.63v-2.45l2.47,1.73Zm-1,3.19,1-2.07v4.14Zm-1.5,9.25v-5.56l2.47-.43v6l-1.23,2.63Zm0,1.12,1,2.07-1,2.07Zm1.24-9.81,1,2.17-2.22.39Zm-1.24,1.51V152l1,2.07Zm2.47,12.44-1-2.07,1-2.07ZM24,153.35V124.88H22.29v18.39l-2.37-1.66V119.32l11.7-3.72v41.9L24,158.85Zm-4,17.53,1.18-2.52,1.19,2.52v2.23l-2.37.27Zm0-5,.92,2-.92,1.95Zm2.37-6.13v5l-1.19,2.52-1.18-2.52v-4.6Zm0-6.88-1.19,2.51-1.18-2.51v-2.33l2.37,1.66Zm-.92,3.07.92-2v3.92Zm-1.45-2,.92,2-.92,2Zm2.37,5.2-2.37.42V159l1.18-2.51L22.29,159Zm0,10.61-.92-1.95.92-2ZM10.71,155.09V127.75H9.09v17.66l-2.27-1.6V123.48l11.42-3.62v40l-7.53,1.33Zm-3.89.59.87,1.86-.87,1.86Zm2.27-1.12L8,157l-1.13-2.42v-2.2L9.09,154Zm0,4.84-.87-1.86.87-1.86Zm-11.73-1.86V131.81H-4.16v16.62l-2.14-1.5V127.66L5.2,124v38.18l-7.84,1.38Zm-3.66.59.81,1.71-.81,1.72ZM-4.16,157l-1.07,2.27L-6.3,157v-2l2.14,1.5Zm0,4.55L-5,159.84l.81-1.71ZM-15.83,160V135.88h-1.43v15.57l-2-1.4V131.78l11.44-3.64v36.34l-8,1.42Zm-3.43.59.74,1.57-.74,1.57Zm2-1.12-1,2.13-1-2.13v-1.88l2,1.4Zm0,4.26-.74-1.57.74-1.57Zm-11.68-1V140.45h-1.32v14.39l-1.84-1.29V135.86l11.41-3.63v34.53l-8.25,1.46Zm-3.16.6.66,1.41-.66,1.4Zm1.84-1.12-.92,2-.92-2v-1.7l1.84,1.3Zm0,3.93-.66-1.4.66-1.41ZM-41.75,165V144.22H-43v13.43l-1.72-1.2V139.87l11.28-3.59V169l-8.33,1.47Zm-3,.59.6,1.28-.6,1.27Zm1.72-1.12-.86,1.84-.86-1.84v-1.54l1.72,1.21Zm0,3.67-.6-1.27.6-1.28Zm-11.39-.39v-19H-55.5v12.26l-1.57-1.11V143.8l11.14-3.54v31l-8.44,1.5Zm-2.7.58.53,1.12-.53,1.11Zm1.57-1.12-.78,1.68-.79-1.68v-1.35l1.57,1.1Zm0,3.35-.52-1.11.52-1.12Zm-11.42-.36V152.85h-1v11.22l-1.43-1V147.71l11.19-3.56v29.24l-8.73,1.55Zm-2.46.58.45,1-.45,1Zm1.43-1.12-.72,1.53-.71-1.53v-1.19l1.43,1Zm0,3.07-.45-1,.45-1Zm-1.43,2.63v-1.52l.71-1.53.72,1.53v1.27Zm1.43,1.54-.72,1.53-.71-1.53v-1l1.43-.26Zm0,3.07-.45-1,.45-1Zm-1.43,1.11.71-1.53.72,1.53v2.11l-1.43.17Zm0-3.06.45,1-.45,1Zm12.31-4.84v-1.5l.79-1.67.78,1.67v1.23Zm1.57,1.95-.78,1.68-.79-1.68v-1.38l1.57-.28Zm0,3.35-.52-1.11.52-1.12Zm-1.57,1.12.79-1.68.78,1.68v2.2l-1.57.18Zm0-3.35.53,1.12-.53,1.11ZM-44.7,171v-1.74l.86-1.84.86,1.84v1.43Zm1.72,2.14-.86,1.84-.86-1.84v-1.58l1.72-.3Zm0,3.68-.6-1.28.6-1.28ZM-44.7,178l.86-1.84L-43,178v2.46l-1.72.19Zm0-3.68.6,1.28-.6,1.28Zm12.6-5.49v-1.52l.92-2,.92,2v1.19Zm1.84,2.73-.92,2-.92-2v-2.17l1.84-.33Zm0,3.94-.66-1.41.66-1.41Zm-1.84,1.12.92-2,.92,2V179l-1.84.2Zm0-3.94.66,1.41-.66,1.41Zm12.84-6.12v-1.68l1-2.12,1,2.13v1.31Zm2,3-1,2.13-1-2.12v-2.46l2-.35Zm0,4.26-.74-1.57.74-1.57Zm-2,1.12,1-2.13,1,2.13v2.64l-2,.22Zm0-4.26.74,1.57-.74,1.57Zm13-6.43v-1.53l1.07-2.28,1.07,2.28v1.15Zm2.14,3.54L-5.23,170l-1.07-2.28v-3l2.14-.37Zm0,4.55L-5,170.58l.81-1.71Zm-2.14,1.12,1.07-2.28,1.07,2.28v2.65l-2.14.24Zm0-4.55.81,1.71-.81,1.72Zm13.12-7v-1.37L8,158.1l1.14,2.42v1ZM9.09,166,8,168.4,6.82,166v-3.53l2.27-.4Zm0,4.84L8.22,169l.87-1.86Zm-2.27,1.11L8,169.52l1.14,2.41v2.66l-2.27.25Zm0-4.83L7.69,169l-.87,1.86Zm62.8-28v11.65l-6,1.05V113.15h-2v21.4L59,132.61v-25.7l10.66-3.39v35.61Zm3.76,8,1.17-2.51v5Zm0,14.47,1.17-2.5v5Zm0,14.48,1.17-2.51v5Zm-1.7,3.62,1.43-3.06,1.44,3.06v7.23L73.11,190l-1.43-3.06Zm0-6.13,1.17,2.51-1.17,2.5Zm0-23.94v-5l1.17,2.51Zm0,8.35v-7.23l1.43-3.07,1.44,3.07V158l-1.44,3.06Zm0,6.12v-5l1.17,2.5Zm0,1.12,1.43-3.06,1.44,3.06v7.23l-1.44,3.07-1.43-3.07Zm2.87-22.64v.92l-1.44,3.07-1.43-3.06v-3Zm0-10.84-2.87-2V63.07H69.62V85.9L59,90V68.83H57V90.74L45.73,95.05V74.58H43.85V95.77l-10.47,4v-18H31.62v18.66l-11.7,4.48V86.8H18.24v18.78L6.82,110V91.21H5.2v19.37L-6.3,115V97.44H-7.82v18.12l-11.44,4.38V103.67h-1.43v16.82l-11.41,4.37v-14.2h-1.32v14.71l-11.28,4.32V116.46h-1.23v13.7l-11.14,4.26v-11h-1.12v11.41l-11.19,4.29v-9.46h-1v9.85l-11,4.2v-7.82h-.93v8.18l-.08,0-.16.06v7.71l.24-.07v25.84h0l-.2,0v7.7l.24,0v11h.93v-9.47l.65-1.38.65,1.39v9.46h.93V185l8.73-1v12.3h1v-.76l.71-1.54.72,1.54v.76h1V183.65l8.73-1v13.67h1.12v-.89l.79-1.68.78,1.68v.89h1.13V182.25l8.44-.95v15h1.23v-1l.86-1.84.86,1.84v1h1.23v-15.5l8.33-.94v16.44h1.32v-1.16l.92-2,.92,2v1.16h1.32V179.4l8.25-.92v17.86h1.43V195l1-2.13,1,2.13v1.31h1.43V177.93l8-.89v19.3H-6.3V194.9l1.07-2.27,1.07,2.27v1.44h1.52V176.46l7.84-.88v20.76H6.82v-1.57L8,192.35l1.14,2.42v1.57h1.62V175l7.53-.84v22.21h1.68v-1.67l1.18-2.51,1.19,2.51v1.67H24V173.48l7.65-.85v23.71h1.76v-1.77l1.24-2.63,1.23,2.63v1.77h1.77V172l6.23-.69v25.08h1.88v-1.92l1.31-2.8,1.32,2.8v1.92h1.87v-25.8l6.76-.75v26.55h2v-2l1.37-2.93,1.38,2.93v2h2V169l6-.66v28h2.06v-2.16l1.43-3.06,1.44,3.06v2.16h2.06V109.4H74.55Z" style="fill: #13274b"/>
      <path d="M192.8,193.07v-5l1.17,2.51Zm1.7-2.51,1.17-2.5v5Zm3.23-22.75V151.34l6,1v16.09Zm7.91,1.45,2.75.31v3.9L207,176.4l-1.38-2.93Zm0,23.92v-4.74l1.11,2.37Zm1.64-2.37,1.11-2.37v4.74Zm0-13.85,1.11-2.37v4.74Zm-1.64,2.37v-4.74l1.11,2.37Zm1.38-1.81,1.37,2.93v6.87L207,190.25l-1.38-2.93v-6.87Zm3.34-8.29V153.57l6.76,1.2V170Zm8.64,1.53,2.62.29v3.44l-1.31,2.79-1.31-2.8Zm0,22.54v-4.47l1.05,2.24Zm1.57-2.23,1.05-2.24v4.47Zm0-13.23,1.05-2.23v4.47ZM219,180.08V175.6l1.05,2.24Zm1.31-1.68,1.31,2.8v6.51l-1.31,2.8-1.31-2.8V181.2Zm3.19-7.7V155.9l6.23,1.1v14.4Zm8,1.45,2.47.28v3.32l-1.24,2.63-1.23-2.63Zm0,21.3v-4.14l1,2.07Zm1.5-2.07,1-2.07v4.14Zm0-12.44,1-2.07V181ZM231.5,181v-4.14l1,2.07Zm1.23-1.51,1.24,2.63v6.06l-1.24,2.63-1.23-2.63v-6.06ZM234,100.37v14.1l-10.47-3.33V96.36Zm-12.35-4.73v14.9L210.36,107V91.33Zm-13.23-5.07v15.76l-10.66-3.39V86.49Zm0,78.44-2.75-.31v-2.1l1.38-2.93,1.37,2.93Zm-2.75-24.1,2.75-1.93v2.79L207,148.7l-1.38-2.93Zm0,6.72v-4.74l1.11,2.37Zm2.75,13.85-1.11-2.37,1.11-2.37Zm0-12.83-2.46-.43,1.13-2.4Zm-1.07-3.39,1.11-2.37v4.74Zm-1.64,3.49h0l2.74.49v6.39L207,162.55l-1.38-2.93Zm0,8,1.11,2.37-1.11,2.37Zm11.48-6.53-6.76-1.2V107.53l11.26,3.58v24.38L219,137.34V116.9h-1.88v37.31Zm4.5,16.28-2.62-.3V168l1.31-2.8,1.31,2.8ZM219,147.24l2.62-1.85V148l-1.31,2.79L219,148Zm0,6.39v-4.48l1.05,2.24Zm1.31,10.43-1.31-2.8V155.1l2.62.47v5.69Zm1.31,2.79-1.05-2.23,1.05-2.24Zm-1.05-15.46,1.05-2.23v4.47Zm1.05,3.36V155l-2.53-.44,1.22-2.61ZM219,162.38l1.05,2.24L219,166.86Zm10.73-5.94-6.23-1.1V111.71L234,115v24.07l-2.47,1.73V121.61h-1.77v34.83ZM234,171.87l-2.47-.28v-1.9l1.23-2.63,1.24,2.63Zm-2.47-21.72,2.47-1.73v2.45l-1.24,2.63-1.23-2.63Zm0,6V152l1,2.07Zm1.23,9.81-1.23-2.63v-6l2.47.43v5.56Zm1.24,2.64-1-2.08,1-2.07Zm0-11.39-2.22-.4,1-2.17Zm-.94-3.13,1-2.07v4.14Zm-1.5,10.37,1,2.07-1,2.08ZM197.73,128.3V103.52l10.66,3.39v25.7l-2.75,1.94v-21.4h-2v38.68l-6-1.05V128.3Zm-4.93,21.34v-5l1.17,2.51Zm0,14.48v-5l1.17,2.5Zm0,14.47v-5l1.17,2.5Zm2.87,8.35L194.24,190l-1.44-3.07v-7.22l1.44-3.06,1.43,3.06Zm0-8.35-1.17-2.51,1.17-2.5Zm-1.17-31.45,1.17-2.51v5Zm-.26,13.91L192.8,158v-7.23l1.44-3.06,1.43,3.06V158Zm.26.56,1.17-2.5v5Zm1.17,10.85-1.43,3.07-1.44-3.07v-7.23l1.44-3.06,1.43,3.06Zm0-31.89v2.94l-1.43,3.07-1.44-3.07v-.92ZM235.73,81.8H234v18l-10.47-4V74.58h-1.88V95.05l-11.26-4.31V68.83h-2V90L197.73,85.9V63.07h-2.06v66.66l-2.87,2V109.4h-2.06v86.94h2.06v-2.16l1.44-3.06,1.43,3.06v2.16h2.06v-28l6,.66v27.3h2v-2l1.38-2.93,1.37,2.93v2h2V169.79l6.76.75v25.8H219v-1.92l1.31-2.8,1.31,2.8v1.92h1.88V171.26l6.23.7v24.38h1.77v-1.77l1.23-2.63,1.24,2.63v1.77h1.76Z" style="fill: #13274b"/>
      <path d="M171.41,165.77v-2.65l4.29-3.05,4.64,3.3v2.4Zm8.93,3.13-4.64,3.3-4.29-3v-2.82h8.93Zm-4.19,16.39,4.19-3v5.94ZM171.41,188v-5.44l3.83,2.72Zm-5.49-2.72,4.15-2.95v5.9ZM161.15,188v-5.5l3.86,2.75Zm8.92-9v2.69L165.46,185l-4.31-3.07V179Zm-12.81-12.67h2.55v12.11h-2.55Zm-6.74,0h4.67v12.11h-4.67Zm-21.4,0h4.67v12.11h-4.67Zm-14.67,0h12.6v12.11h-12.6Zm-6.74,0h4.67v12.11h-4.67Zm-21.4,0H91v12.11H86.31Zm0-12.76H91v12.2H86.31Zm28.14,0v-4.16h-.63v-8.33H131v8.33h-4v16.36h-12.6Zm-6.74,0h4.67v12.2h-4.67Zm-15.29-4.16v-8.33H109.6v8.33h-3.95v16.36H93.05V149.41Zm17.18-12.28H92.42v-7.81H109.6Zm4.22-7.81H131v7.81H113.82Zm20,36.45h-4.67v-12.2h4.67Zm16.73-12.2h4.67v12.2h-4.67Zm19.55,15.36-4.61,3.27-4.31-3.07v-2.8h8.92Zm1.34,6.31V169.8l3.83,2.72Zm-1.34.23-4.15-2.95,4.15-3Zm-8.92.44,4.31-3.07,4.61,3.27v2.33h-8.92Zm0-6.13,3.86,2.74-3.86,2.74Zm19.19,11.89L175.7,185l-4.29-3.05V179h8.93Zm0-5.53v2.3h-8.93v-2.55l4.29-3Zm0-.65-4.19-3,4.19-3Zm-19.19-12.35,4.31-3.07,4.61,3.27v2.43h-8.92Zm3.86-3.39-3.86,2.74V157Zm5.06-2.95v5.9l-4.15-2.95Zm5.17,2.95-3.83,2.72V157Zm5.1-3v5.94l-4.19-3Zm0-.65-4.64,3.3-4.29-3V145.44h-1.34v10.72l-4.61,3.27-4.31-3.06V145.44h-1.34v20.33h-2.55V149.41h-.63V114.34h-1.44v-13h-2.78v48.07h-4v16.36H135.86V149.41h-.63V114.34h-1.44v-13H131v24H113.82v-11h-1.44v-13H109.6v24H92.42v-11H91v-13H88.19v48.07h-4v16.36h-.06v.56h.06v12.11h-.06V179h.06v17.4h2.07V179H91v17.4h2.07V179h12.6v17.4h2.06V179h4.67v17.4h2.07V179h12.6v17.4h2.07V179h4.67v17.4h2.07V179h12.59v17.4h2.07V179h4.67v17.4h2.07V179h2.55v17.4h1.34v-7.72l4.31-3.07,4.61,3.27v7.52h1.34v-7.74l4.29-3,4.64,3.3v7.49h1.34v-51h-1.34Z" style="fill: #6cbcd3"/>
    </g>
  </g>
</svg>
